<?xml version="1.0" standalone="no"?>
<!DOCTYPE svg PUBLIC "-//W3C//DTD SVG 20010904//EN"
 "http://www.w3.org/TR/2001/REC-SVG-20010904/DTD/svg10.dtd">
<svg version="1.0" xmlns="http://www.w3.org/2000/svg"
 width="260.000000pt" height="260.000000pt" viewBox="0 0 260.000000 260.000000"
 preserveAspectRatio="xMidYMid meet">
<metadata>
Created by potrace 1.11, written by Peter Selinger 2001-2013
</metadata>
<g transform="translate(0.000000,260.000000) scale(0.100000,-0.100000)"
fill="#000000" stroke="none">
<path d="M0 1300 l0 -1300 1300 0 1300 0 0 1300 0 1300 -1300 0 -1300 0 0
-1300z m784 470 c103 -50 116 -167 20 -186 -30 -6 -31 -5 -38 36 -5 29 -17 53
-40 76 -31 31 -39 34 -92 34 -72 0 -119 -25 -140 -75 -36 -86 -1 -169 91 -218
17 -9 70 -35 119 -58 119 -55 179 -114 195 -191 33 -159 -75 -281 -263 -295
-98 -7 -178 11 -223 50 -65 57 -82 139 -38 182 39 40 60 33 73 -26 23 -97 72
-139 166 -139 94 0 148 33 167 103 25 94 -18 161 -138 217 -37 18 -87 41 -110
51 -65 31 -129 93 -150 147 -53 141 11 268 157 309 68 19 187 11 244 -17z
m516 -5 c0 -21 -5 -25 -30 -25 -32 0 -70 -30 -70 -55 0 -8 38 -148 85 -311 47
-163 85 -305 85 -317 0 -41 18 -2 35 78 15 68 110 425 161 603 l15 52 44 0 44
0 20 -67 c55 -188 142 -498 161 -573 11 -47 23 -92 26 -100 3 -8 20 44 39 115
18 72 56 210 84 307 28 97 51 190 51 207 0 37 -31 61 -77 61 -29 0 -33 3 -33
25 l0 25 155 0 155 0 0 -25 c0 -21 -5 -25 -30 -25 -61 0 -68 -17 -189 -442
l-114 -398 -56 0 -56 0 -99 340 c-55 188 -103 337 -107 333 -4 -4 -44 -143
-89 -308 -44 -165 -86 -315 -91 -332 -10 -32 -12 -33 -67 -33 l-57 0 -99 338
c-154 520 -146 502 -208 502 -23 0 -28 4 -28 25 l0 25 170 0 170 0 0 -25z"/>
</g>
</svg>
